<svg width="185" height="51" viewBox="0 0 185 51" fill="none" xmlns="http://www.w3.org/2000/svg">
<path d="M25.7 33C25.7 31.5667 25.9667 30.3083 26.5 29.225C27.05 28.1417 27.7917 27.3083 28.725 26.725C29.6583 26.1417 30.7 25.85 31.85 25.85C32.8333 25.85 33.6917 26.05 34.425 26.45C35.175 26.85 35.75 27.375 36.15 28.025V26.05H40.425V40H36.15V38.025C35.7333 38.675 35.15 39.2 34.4 39.6C33.6667 40 32.8083 40.2 31.825 40.2C30.6917 40.2 29.6583 39.9083 28.725 39.325C27.7917 38.725 27.05 37.8833 26.5 36.8C25.9667 35.7 25.7 34.4333 25.7 33ZM36.15 33.025C36.15 31.9583 35.85 31.1167 35.25 30.5C34.6667 29.8833 33.95 29.575 33.1 29.575C32.25 29.575 31.525 29.8833 30.925 30.5C30.3417 31.1 30.05 31.9333 30.05 33C30.05 34.0667 30.3417 34.9167 30.925 35.55C31.525 36.1667 32.25 36.475 33.1 36.475C33.95 36.475 34.6667 36.1667 35.25 35.55C35.85 34.9333 36.15 34.0917 36.15 33.025ZM49.1928 40.2C47.9761 40.2 46.8928 39.9917 45.9428 39.575C44.9928 39.1583 44.2428 38.5917 43.6928 37.875C43.1428 37.1417 42.8344 36.325 42.7678 35.425H46.9928C47.0428 35.9083 47.2678 36.3 47.6678 36.6C48.0678 36.9 48.5594 37.05 49.1428 37.05C49.6761 37.05 50.0844 36.95 50.3678 36.75C50.6678 36.5333 50.8178 36.2583 50.8178 35.925C50.8178 35.525 50.6094 35.2333 50.1928 35.05C49.7761 34.85 49.1011 34.6333 48.1678 34.4C47.1678 34.1667 46.3344 33.925 45.6678 33.675C45.0011 33.4083 44.4261 33 43.9428 32.45C43.4594 31.8833 43.2178 31.125 43.2178 30.175C43.2178 29.375 43.4344 28.65 43.8678 28C44.3178 27.3333 44.9678 26.8083 45.8178 26.425C46.6844 26.0417 47.7094 25.85 48.8928 25.85C50.6428 25.85 52.0178 26.2833 53.0178 27.15C54.0344 28.0167 54.6178 29.1667 54.7678 30.6H50.8178C50.7511 30.1167 50.5344 29.7333 50.1678 29.45C49.8178 29.1667 49.3511 29.025 48.7678 29.025C48.2678 29.025 47.8844 29.125 47.6178 29.325C47.3511 29.5083 47.2178 29.7667 47.2178 30.1C47.2178 30.5 47.4261 30.8 47.8428 31C48.2761 31.2 48.9428 31.4 49.8428 31.6C50.8761 31.8667 51.7178 32.1333 52.3678 32.4C53.0178 32.65 53.5844 33.0667 54.0678 33.65C54.5678 34.2167 54.8261 34.9833 54.8428 35.95C54.8428 36.7667 54.6094 37.5 54.1428 38.15C53.6928 38.7833 53.0344 39.2833 52.1678 39.65C51.3178 40.0167 50.3261 40.2 49.1928 40.2ZM65.9832 40L61.7332 34.15V40H57.4582V21.5H61.7332V31.725L65.9582 26.05H71.2332L65.4332 33.05L71.2832 40H65.9832Z" fill="#424458"/>
<path d="M99.825 28.375C100.325 27.6083 100.95 27.0083 101.7 26.575C102.45 26.125 103.283 25.9 104.2 25.9V30.425H103.025C101.958 30.425 101.158 30.6583 100.625 31.125C100.092 31.575 99.825 32.375 99.825 33.525V40H95.55V26.05H99.825V28.375ZM105.393 33C105.393 31.5667 105.66 30.3083 106.193 29.225C106.743 28.1417 107.485 27.3083 108.418 26.725C109.352 26.1417 110.393 25.85 111.543 25.85C112.527 25.85 113.385 26.05 114.118 26.45C114.868 26.85 115.443 27.375 115.843 28.025V26.05H120.118V40H115.843V38.025C115.427 38.675 114.843 39.2 114.093 39.6C113.36 40 112.502 40.2 111.518 40.2C110.385 40.2 109.352 39.9083 108.418 39.325C107.485 38.725 106.743 37.8833 106.193 36.8C105.66 35.7 105.393 34.4333 105.393 33ZM115.843 33.025C115.843 31.9583 115.543 31.1167 114.943 30.5C114.36 29.8833 113.643 29.575 112.793 29.575C111.943 29.575 111.218 29.8833 110.618 30.5C110.035 31.1 109.743 31.9333 109.743 33C109.743 34.0667 110.035 34.9167 110.618 35.55C111.218 36.1667 111.943 36.475 112.793 36.475C113.643 36.475 114.36 36.1667 114.943 35.55C115.543 34.9333 115.843 34.0917 115.843 33.025ZM122.361 33.025C122.361 31.575 122.653 30.3083 123.236 29.225C123.836 28.1417 124.661 27.3083 125.711 26.725C126.778 26.1417 127.994 25.85 129.361 25.85C131.111 25.85 132.569 26.3083 133.736 27.225C134.919 28.1417 135.694 29.4333 136.061 31.1H131.511C131.128 30.0333 130.386 29.5 129.286 29.5C128.503 29.5 127.878 29.8083 127.411 30.425C126.944 31.025 126.711 31.8917 126.711 33.025C126.711 34.1583 126.944 35.0333 127.411 35.65C127.878 36.25 128.503 36.55 129.286 36.55C130.386 36.55 131.128 36.0167 131.511 34.95H136.061C135.694 36.5833 134.919 37.8667 133.736 38.8C132.553 39.7333 131.094 40.2 129.361 40.2C127.994 40.2 126.778 39.9083 125.711 39.325C124.661 38.7417 123.836 37.9083 123.236 36.825C122.653 35.7417 122.361 34.475 122.361 33.025ZM146.873 40L142.623 34.15V40H138.348V21.5H142.623V31.725L146.848 26.05H152.123L146.323 33.05L152.173 40H146.873ZM166.952 32.8C166.952 33.2 166.927 33.6167 166.877 34.05H157.202C157.269 34.9167 157.544 35.5833 158.027 36.05C158.527 36.5 159.135 36.725 159.852 36.725C160.919 36.725 161.66 36.275 162.077 35.375H166.627C166.394 36.2917 165.969 37.1167 165.352 37.85C164.752 38.5833 163.994 39.1583 163.077 39.575C162.16 39.9917 161.135 40.2 160.002 40.2C158.635 40.2 157.419 39.9083 156.352 39.325C155.285 38.7417 154.452 37.9083 153.852 36.825C153.252 35.7417 152.952 34.475 152.952 33.025C152.952 31.575 153.244 30.3083 153.827 29.225C154.427 28.1417 155.26 27.3083 156.327 26.725C157.394 26.1417 158.619 25.85 160.002 25.85C161.352 25.85 162.552 26.1333 163.602 26.7C164.652 27.2667 165.469 28.075 166.052 29.125C166.652 30.175 166.952 31.4 166.952 32.8ZM162.577 31.675C162.577 30.9417 162.327 30.3583 161.827 29.925C161.327 29.4917 160.702 29.275 159.952 29.275C159.235 29.275 158.627 29.4833 158.127 29.9C157.644 30.3167 157.344 30.9083 157.227 31.675H162.577ZM173.482 28.375C173.982 27.6083 174.607 27.0083 175.357 26.575C176.107 26.125 176.941 25.9 177.857 25.9V30.425H176.682C175.616 30.425 174.816 30.6583 174.282 31.125C173.749 31.575 173.482 32.375 173.482 33.525V40H169.207V26.05H173.482V28.375Z" fill="#424458"/>
<path d="M22.31 0.859998V50H10.34V0.859998H22.31Z" fill="#121954"/>
<path d="M91.31 0.859998V50H79.34V0.859998H91.31Z" fill="#121954"/>
<rect width="102" height="12" fill="#121954"/>
</svg>
